<?xml version="1.0" encoding="utf-8"?>
<svg xmlns="http://www.w3.org/2000/svg" xmlns:xlink="http://www.w3.org/1999/xlink" style="margin: auto; background: none; display: block; shape-rendering: auto;" width="143px" height="143px" viewBox="0 0 100 100" preserveAspectRatio="xMidYMid">
<g transform="rotate(0 50 50)">
  <rect x="46" y="24.5" rx="4" ry="7.5" width="8" height="15" fill="#d62c70">
    <animate attributeName="opacity" values="1;0" keyTimes="0;1" dur="1.4705882352941175s" begin="-1.3235294117647058s" repeatCount="indefinite"></animate>
  </rect>
</g><g transform="rotate(36 50 50)">
  <rect x="46" y="24.5" rx="4" ry="7.5" width="8" height="15" fill="#d62c70">
    <animate attributeName="opacity" values="1;0" keyTimes="0;1" dur="1.4705882352941175s" begin="-1.176470588235294s" repeatCount="indefinite"></animate>
  </rect>
</g><g transform="rotate(72 50 50)">
  <rect x="46" y="24.5" rx="4" ry="7.5" width="8" height="15" fill="#d62c70">
    <animate attributeName="opacity" values="1;0" keyTimes="0;1" dur="1.4705882352941175s" begin="-1.0294117647058822s" repeatCount="indefinite"></animate>
  </rect>
</g><g transform="rotate(108 50 50)">
  <rect x="46" y="24.5" rx="4" ry="7.5" width="8" height="15" fill="#d62c70">
    <animate attributeName="opacity" values="1;0" keyTimes="0;1" dur="1.4705882352941175s" begin="-0.8823529411764705s" repeatCount="indefinite"></animate>
  </rect>
</g><g transform="rotate(144 50 50)">
  <rect x="46" y="24.5" rx="4" ry="7.5" width="8" height="15" fill="#d62c70">
    <animate attributeName="opacity" values="1;0" keyTimes="0;1" dur="1.4705882352941175s" begin="-0.7352941176470588s" repeatCount="indefinite"></animate>
  </rect>
</g><g transform="rotate(180 50 50)">
  <rect x="46" y="24.5" rx="4" ry="7.5" width="8" height="15" fill="#d62c70">
    <animate attributeName="opacity" values="1;0" keyTimes="0;1" dur="1.4705882352941175s" begin="-0.588235294117647s" repeatCount="indefinite"></animate>
  </rect>
</g><g transform="rotate(216 50 50)">
  <rect x="46" y="24.5" rx="4" ry="7.5" width="8" height="15" fill="#d62c70">
    <animate attributeName="opacity" values="1;0" keyTimes="0;1" dur="1.4705882352941175s" begin="-0.4411764705882352s" repeatCount="indefinite"></animate>
  </rect>
</g><g transform="rotate(252 50 50)">
  <rect x="46" y="24.5" rx="4" ry="7.5" width="8" height="15" fill="#d62c70">
    <animate attributeName="opacity" values="1;0" keyTimes="0;1" dur="1.4705882352941175s" begin="-0.2941176470588235s" repeatCount="indefinite"></animate>
  </rect>
</g><g transform="rotate(288 50 50)">
  <rect x="46" y="24.5" rx="4" ry="7.5" width="8" height="15" fill="#d62c70">
    <animate attributeName="opacity" values="1;0" keyTimes="0;1" dur="1.4705882352941175s" begin="-0.14705882352941174s" repeatCount="indefinite"></animate>
  </rect>
</g><g transform="rotate(324 50 50)">
  <rect x="46" y="24.5" rx="4" ry="7.5" width="8" height="15" fill="#d62c70">
    <animate attributeName="opacity" values="1;0" keyTimes="0;1" dur="1.4705882352941175s" begin="0s" repeatCount="indefinite"></animate>
  </rect>
</g>
<!-- [ldio] generated by https://loading.io/ --></svg>